<svg xmlns="http://www.w3.org/2000/svg" viewBox="0 0 335 276">
  <path fill="#4A4A4A" d="M335 147.5a50.5 50.5 0 0 1-59.8 49.6 50.5 50.5 0 0 1-21.6 29C245.7 243.7 228 256 207.5 256a50.4 50.4 0 0 1-16-2.6 41.8 41.8 0 0 1-48.4 2.8 42.2 42.2 0 0 1-8.1-.2 41.8 41.8 0 0 1-19.1-4.6A41.8 41.8 0 0 1 88 262c-1.8 0-3.6-.1-5.4-.3C74.9 270.4 63.6 276 51 276c-23.2 0-42-18.8-42-42s18.8-42 42-42c1.8 0 3.6.1 5.4.3C64.1 183.6 75.4 178 88 178a41.8 41.8 0 0 1 19.1 4.6c7.4-6.6 17.2-10.6 27.9-10.6a41.8 41.8 0 0 1 22.9 6.8c2.4-.5 4.8-.8 7.2-.8 9-13.9 24.6-23 42.4-23 .6 0 1.2 0 1.8.1A41.8 41.8 0 0 1 234 147c.3-27.7 22.8-50 50.5-50a50.5 50.5 0 0 1 50.5 50.5Z"/>
</svg>

